<svg width="114" height="24" viewBox="0 0 114 24" fill="none" xmlns="http://www.w3.org/2000/svg">
<g clip-path="url(#clip0_1_34)">
<path d="M41.9233 12.4621C41.9233 15.3726 39.6529 16.7108 37.2031 16.7108H35.3813V19.7842H32.0689V8.21576H37.2031C39.6598 8.21576 41.9233 9.57001 41.9233 12.4621ZM38.4729 12.4621C38.4729 11.3718 38.0266 10.9587 37.0329 10.9587H35.3767V13.9679H37.0329C38.0312 13.9679 38.4775 13.5708 38.4775 12.4621H38.4729Z" fill="#0C1014"/>
<path d="M53.7145 19.7842H49.574L46.7263 16.4468V19.7842H43.4116V8.21576H48.2168C50.7172 8.21576 52.6725 9.88446 52.6725 12.0834C52.6725 13.9839 51.7524 15.0421 50.0709 15.7559L53.7145 19.7842ZM49.2589 12.3634C49.2589 11.4453 48.7988 10.9587 47.8787 10.9587H46.7286V13.9679H47.7706C48.7965 13.9679 49.2589 13.5868 49.2589 12.3634V12.3634Z" fill="#0C1014"/>
<path d="M58.0873 15.7031V19.7842H54.7749V8.21576H62.9064V11.0252H58.0873V12.8937H62.2761V15.7031H58.0873Z" fill="#0C1014"/>
<path d="M67.4609 14.0092C67.4609 15.9097 68.7858 17.0344 70.4926 17.0344C71.6582 17.0533 72.8131 16.8101 73.8717 16.3229V19.3803C72.7915 19.7978 71.6419 20.0081 70.4834 20C66.8214 20 63.8908 17.404 63.8908 14C63.8908 10.596 66.6075 8 70.3661 8C71.569 7.98687 72.7609 8.22943 73.8625 8.71156V11.7689C72.7656 11.263 71.5744 10.9924 70.3661 10.9748C68.5696 10.9748 67.4609 12.1155 67.4609 14.0092Z" fill="#0C1014"/>
<path d="M84.8188 8.21576V11.14H81.5386V19.7842H78.2262V11.14H74.946V8.21576H84.8188Z" fill="#0C1014"/>
<path d="M93.2562 15.7031V19.7842H89.9438V8.21576H98.0867V11.0252H93.2562V12.8937H97.4472V15.7031H93.2562Z" fill="#0C1014"/>
<path d="M102.802 8.21576V19.7842H99.4899V8.21576H102.802Z" fill="#0C1014"/>
<path d="M114 8.21576V11.14H110.72V19.7842H107.407V11.14H104.127V8.21576H114Z" fill="#0C1014"/>
</g>
<g clip-path="url(#clip1_1_34)">
<path d="M9.01941 5C9.01941 4.20435 9.33616 3.44129 9.89998 2.87868C10.4638 2.31607 11.2285 2 12.0259 2C12.8232 2 13.5879 2.31607 14.1518 2.87868C14.7156 3.44129 15.0323 4.20435 15.0323 5V6H17.0366V5C17.0366 3.67391 16.5087 2.40214 15.569 1.46446C14.6293 0.52678 13.3548 -3.8147e-06 12.0259 -3.8147e-06C10.6969 -3.8147e-06 9.42242 0.52678 8.48272 1.46446C7.54302 2.40214 7.01511 3.67391 7.01511 5V6H9.01941V5Z" fill="#0C1014"/>
<path d="M24.0438 22.876L22.0395 6.876C22.0093 6.63415 21.8915 6.41166 21.7084 6.25034C21.5253 6.08903 21.2894 6.00001 21.0452 6H17.0365V10H15.0322V6H9.01933V10H7.01503V6H3.00642C2.76216 6.00001 2.52631 6.08903 2.3432 6.25034C2.16009 6.41166 2.04232 6.63415 2.01203 6.876L0.00772667 22.876C-0.00826621 23.0164 0.00544478 23.1586 0.0479733 23.2934C0.0905019 23.4282 0.160902 23.5525 0.254621 23.6585C0.348341 23.7644 0.463296 23.8496 0.592054 23.9084C0.720812 23.9672 0.860508 23.9984 1.00211 24H23.0495C23.1911 23.9984 23.3308 23.9672 23.4595 23.9084C23.5883 23.8496 23.7032 23.7644 23.797 23.6585C23.8907 23.5525 23.9611 23.4282 24.0036 23.2934C24.0461 23.1586 24.0598 23.0164 24.0438 22.876ZM16.0344 15.75C15.6091 17.2351 12.0258 19.75 12.0258 19.75C12.0258 19.75 8.44309 17.2351 8.01718 15.75C7.26632 13.1277 10.5241 12.2515 12.0258 13.75C13.5275 12.2515 16.7853 13.1277 16.0344 15.75Z" fill="#0C1014"/>
</g>
<defs>
<clipPath id="clip0_1_34">
<rect width="81.9311" height="12" fill="white" transform="translate(32.0689 8)"/>
</clipPath>
<clipPath id="clip1_1_34">
<rect width="24.0517" height="24" fill="white"/>
</clipPath>
</defs>
</svg>
