<svg width="82" height="12" viewBox="0 0 82 12" fill="none" xmlns="http://www.w3.org/2000/svg">
<g clip-path="url(#clip0_1_35)">
<path d="M9.92328 4.46213C9.92328 7.37261 7.65291 8.71079 5.20312 8.71079H3.3813V11.7842H0.0689087V0.215763H5.20312C7.65981 0.215763 9.92328 1.57001 9.92328 4.46213ZM6.47287 4.46213C6.47287 3.37185 6.02661 2.95868 5.0329 2.95868H3.3767V5.96787H5.0329C6.03121 5.96787 6.47747 5.57078 6.47747 4.46213H6.47287Z" fill="#0C1014"/>
<path d="M21.7145 11.7842H17.574L14.7263 8.44682V11.7842H11.4116V0.215763H16.2168C18.7172 0.215763 20.6725 1.88446 20.6725 4.08339C20.6725 5.98393 19.7524 7.04208 18.0709 7.75593L21.7145 11.7842ZM17.2589 4.36343C17.2589 3.44529 16.7988 2.95868 15.8787 2.95868H14.7286V5.96787H15.7706C16.7965 5.96787 17.2589 5.58684 17.2589 4.36343V4.36343Z" fill="#0C1014"/>
<path d="M26.0873 7.70314V11.7842H22.7749V0.215763H30.9064V3.02525H26.0873V4.89365H30.2761V7.70314H26.0873Z" fill="#0C1014"/>
<path d="M35.4609 6.00918C35.4609 7.90972 36.7858 9.03443 38.4926 9.03443C39.6582 9.05326 40.8131 8.81006 41.8717 8.32288V11.3803C40.7915 11.7978 39.6419 12.0081 38.4834 12C34.8214 12 31.8908 9.40398 31.8908 6C31.8908 2.59602 34.6075 2.84495e-06 38.3661 2.84495e-06C39.569 -0.013133 40.7609 0.22943 41.8625 0.711557V3.76894C40.7656 3.263 39.5744 2.99244 38.3661 2.97475C36.5696 2.97475 35.4609 4.11553 35.4609 6.00918Z" fill="#0C1014"/>
<path d="M52.8188 0.215763V3.14002H49.5386V11.7842H46.2262V3.14002H42.946V0.215763H52.8188Z" fill="#0C1014"/>
<path d="M61.2562 7.70314V11.7842H57.9438V0.215763H66.0867V3.02525H61.2562V4.89365H65.4472V7.70314H61.2562Z" fill="#0C1014"/>
<path d="M70.8023 0.215763V11.7842H67.4899V0.215763H70.8023Z" fill="#0C1014"/>
<path d="M82 0.215763V3.14002H78.7198V11.7842H75.4074V3.14002H72.1273V0.215763H82Z" fill="#0C1014"/>
</g>
<defs>
<clipPath id="clip0_1_35">
<rect width="81.9311" height="12" fill="white" transform="translate(0.0689087)"/>
</clipPath>
</defs>
</svg>
