<svg width="25" height="24" viewBox="0 0 25 24" fill="none" xmlns="http://www.w3.org/2000/svg">
<g clip-path="url(#clip0_1_44)">
<path d="M9.01941 5C9.01941 4.20435 9.33616 3.44129 9.89998 2.87868C10.4638 2.31607 11.2285 2 12.0259 2C12.8232 2 13.5879 2.31607 14.1518 2.87868C14.7156 3.44129 15.0323 4.20435 15.0323 5V6H17.0366V5C17.0366 3.67391 16.5087 2.40214 15.569 1.46446C14.6293 0.52678 13.3548 -3.8147e-06 12.0259 -3.8147e-06C10.6969 -3.8147e-06 9.42242 0.52678 8.48272 1.46446C7.54302 2.40214 7.01511 3.67391 7.01511 5V6H9.01941V5Z" fill="#0C1014"/>
<path d="M24.0438 22.876L22.0395 6.876C22.0093 6.63415 21.8915 6.41166 21.7084 6.25034C21.5253 6.08903 21.2894 6.00001 21.0452 6H17.0365V10H15.0322V6H9.01933V10H7.01503V6H3.00642C2.76216 6.00001 2.52631 6.08903 2.3432 6.25034C2.16009 6.41166 2.04232 6.63415 2.01203 6.876L0.00772667 22.876C-0.00826621 23.0164 0.00544478 23.1586 0.0479733 23.2934C0.0905019 23.4282 0.160902 23.5525 0.254621 23.6585C0.348341 23.7644 0.463296 23.8496 0.592054 23.9084C0.720812 23.9672 0.860508 23.9984 1.00211 24H23.0495C23.1911 23.9984 23.3308 23.9672 23.4595 23.9084C23.5883 23.8496 23.7032 23.7644 23.797 23.6585C23.8907 23.5525 23.9611 23.4282 24.0036 23.2934C24.0461 23.1586 24.0598 23.0164 24.0438 22.876ZM16.0344 15.75C15.6091 17.2351 12.0258 19.75 12.0258 19.75C12.0258 19.75 8.44309 17.2351 8.01718 15.75C7.26632 13.1277 10.5241 12.2515 12.0258 13.75C13.5275 12.2515 16.7853 13.1277 16.0344 15.75Z" fill="#0C1014"/>
</g>
<defs>
<clipPath id="clip0_1_44">
<rect width="24.0517" height="24" fill="white"/>
</clipPath>
</defs>
</svg>
